<?xml version="1.0" encoding="UTF-8" standalone="no"?>
<svg width="300px" height="253px" viewBox="0 0 300 253" version="1.1" xmlns="http://www.w3.org/2000/svg" xmlns:xlink="http://www.w3.org/1999/xlink" xmlns:sketch="http://www.bohemiancoding.com/sketch/ns">
    <!-- Generator: Sketch 3.3.3 (12081) - http://www.bohemiancoding.com/sketch -->
    <title>brain</title>
    <desc>Created with Sketch.</desc>
    <defs></defs>
    <g id="Page-1" stroke="none" stroke-width="1" fill="none" fill-rule="evenodd" sketch:type="MSPage">
        <g id="iPhone-6" sketch:type="MSArtboardGroup" transform="translate(-20.000000, -2152.000000)" fill="#E15169">
            <g id="section" sketch:type="MSLayerGroup" transform="translate(0.000000, 2094.000000)">
                <g id="brain" transform="translate(19.000000, 57.000000)" sketch:type="MSShapeGroup">
                    <path d="M120.101701,252.507263 C119.603528,252.469198 118.070689,252.240809 116.71668,251.999731 C115.362672,251.758654 111.441156,251.098863 107.992267,250.52789 C96.0361162,248.561205 95.435754,248.44701 90.5562139,247.152805 C77.4759808,243.676214 71.1913376,241.582646 64.3063321,238.410574 C60.6786112,236.73572 59.0563558,236.06324 58.1749729,235.84754 C56.7826434,235.517644 50.7151525,232.269442 46.1677277,229.401889 C38.107545,224.339261 31.6312968,219.175128 26.4579624,213.693787 C21.0930231,208.009434 17.3886602,203.21326 14.003639,197.528907 C12.7262725,195.384586 9.87774514,190.131635 9.02190958,188.355274 C3.52923358,176.846996 0.98727423,165.465601 1.0000479,152.383975 C1.0000479,148.184151 1.35771052,142.715499 1.65150482,142.360227 C1.71537314,142.284097 1.90697812,141.294411 2.09858309,140.139776 C2.55843504,137.310288 3.20989196,134.17628 3.89966987,131.537116 C4.20623783,130.331729 4.46171114,129.126341 4.46171114,128.872576 C4.46171114,127.57837 5.66243566,124.000273 6.3777609,123.137469 C7.00367049,122.38886 7.29746479,121.79251 7.70622207,120.447552 C8.06388469,119.318294 8.22994234,119.039152 9.50730885,117.694193 C11.0529223,116.070092 13.9142233,114.027278 16.1496147,112.986838 C19.3174836,111.48962 23.2262252,110.652193 27.7736499,110.487245 C29.1276584,110.436492 30.1240043,110.461868 30.6988193,110.563375 C34.1477088,111.159724 45.1075135,111.197789 50.5107738,110.639505 C55.2881246,110.144661 59.4012447,109.066157 62.5307927,107.492809 C64.2424638,106.630005 65.724209,105.323111 67.1037648,103.419868 C69.2752878,100.450809 70.3099547,98.4206823 72.6092144,92.5586928 C74.0526386,88.9044656 75.6237994,85.9480943 77.3354705,83.7022671 C78.8555367,81.6975175 80.5416605,80.2637408 82.8920148,79.0202885 C83.4923771,78.7030813 84.182155,78.3097444 84.4248547,78.1574849 C85.0763116,77.7387714 88.0014809,76.8252146 90.2496459,76.3303713 C92.0379591,75.9370343 95.6912273,75.4421911 97.3901247,75.3660613 C98.2331866,75.3279965 101.17113,75.2391784 103.904694,75.175737 C106.651032,75.1122955 109.755033,74.9727244 110.802473,74.8585298 C111.862687,74.7570235 113.663774,74.6174523 114.826178,74.5413225 C119.986738,74.2241153 123.550591,73.5897009 126.961159,72.3589369 C128.174658,71.927535 129.707497,71.1916143 129.835234,70.9886016 C129.886329,70.9124719 130.269539,70.6840827 130.703843,70.4683818 C131.968436,69.8339674 133.258576,68.7935277 135.506741,66.6238303 C140.858907,61.3962552 144.80597,55.9022261 149.187337,47.5787086 C149.711057,46.6017104 150.247551,45.662777 150.388061,45.4851409 C150.541345,45.3075049 151.026744,44.3305066 151.473823,43.3281318 C151.920901,42.3130687 152.367979,41.3995119 152.457395,41.2980056 C152.725642,40.9807984 155.599717,34.509771 156.877083,31.3376988 C157.630729,29.4471437 159.482911,25.1711904 160.172689,23.7247254 C160.504804,23.0268696 160.964656,21.948365 161.207356,21.3139506 C161.437282,20.6922244 161.731076,20.0958748 161.858812,20.0070568 C161.986549,19.9055505 162.510269,19.0300585 163.008442,18.040372 C165.269381,13.5360294 168.411703,8.40996073 171.579572,4.05787763 C172.856938,2.30689376 173.227374,1.90086851 174.032115,1.50753156 C174.377004,1.32989551 174.824083,1.10150631 175.015688,1 C176.216412,1.12688289 176.689038,1.29183065 176.970058,1.39333696 C177.851441,1.67247931 179.831359,2.86517847 180.521137,3.53765778 C181.26201,4.24820196 181.990109,5.25057679 182.679887,6.53209397 C182.922586,6.98887237 183.254702,7.55984537 183.407986,7.80092286 C183.548496,8.04200035 183.676232,8.39727244 183.676232,8.58759677 C183.676232,8.76523282 183.816743,9.09512833 183.995574,9.29814095 C184.276595,9.62803646 184.314916,9.79298422 184.314916,10.6684762 C184.314916,12.8508618 183.727327,14.8809881 181.530257,20.3623289 C180.674421,22.5066497 180.444495,23.4963362 180.49559,24.8286066 C180.546685,25.7802282 180.585006,25.9578643 180.917121,26.3765778 C181.376973,26.9856157 181.798504,27.2393815 183.024776,27.6327184 C185.068562,28.3051977 186.013813,28.3940158 190.63788,28.2925095 C194.291148,28.2163797 195.070342,28.1656266 196.449898,27.9118608 C199.24733,27.3789527 203.475413,26.4780841 205.646936,25.945176 C211.727201,24.4606462 215.955284,23.9404264 219.378626,24.2830102 C232.867617,25.6152805 241.20882,29.4725203 247.046385,37.0474288 C248.591999,39.0521785 250.904032,42.6175876 253.050008,46.2464383 C254.902189,49.4058222 257.405827,52.7301539 259.487935,54.8237216 C260.650338,55.9783559 261.059096,56.3082514 261.863837,56.7015883 C263.920397,57.6785866 266.449582,58.046547 271.25248,58.046547 C272.670357,58.046547 274.420349,58.1099884 275.148448,58.1734298 C279.82361,58.6302082 283.093668,60.0132317 285.827232,62.6904607 C287.602772,64.4414446 288.471381,65.6341437 290.055315,68.5143853 C291.485966,71.1408611 292.175744,72.891845 293.018806,76.1273587 C293.235958,76.9647857 293.746905,78.6269516 294.168436,79.8069624 C301.01512,99.3849922 302.675697,117.947959 299.328996,137.576742 C298.651992,141.598929 297.604551,146.230155 296.582658,149.782876 C295.190329,154.604426 293.350921,159.895442 292.201291,162.344282 C291.830855,163.143644 291.153851,164.628174 290.706772,165.643237 C288.037076,171.733616 283.425783,180.00638 279.184926,186.325148 C275.659395,191.552723 269.489715,199.520968 265.759804,203.644662 C257.967869,212.26001 251.223374,218.540713 242.243487,225.544649 C231.079304,234.261503 224.13043,238.182185 216.760025,239.933169 C213.438872,240.707154 210.769176,240.986297 204.816648,241.138556 C200.269223,241.252751 199.183462,241.354257 194.725453,242.077489 C193.256481,242.318567 191.698094,242.546956 191.26379,242.585021 C189.220003,242.800722 187.367822,243.485889 178.783919,247.216246 C170.928115,250.629396 169.075933,251.352629 166.150764,252.101238 C163.979241,252.659522 162.242022,252.849847 160.964656,252.684899 C159.048606,252.431133 154.271255,251.136928 152.623453,250.413695 C150.247551,249.373255 148.995732,249.094113 146.696472,249.094113 C145.099764,249.081425 144.614365,249.132178 143.771303,249.373255 C142.608899,249.690463 139.198331,250.933915 136.605277,251.999731 C134.267696,252.938665 132.556025,253.509638 131.329753,253.750715 C129.490345,254.105987 128.979399,254.093299 126.705686,253.636521 C123.767743,253.027483 121.187463,252.596081 120.101701,252.507263 Z" transform="translate(151.000000, 127.500000) scale(-1, 1) rotate(-180.000000) translate(-151.000000, -127.500000) "></path>
                </g>
            </g>
        </g>
    </g>
</svg>