<?xml version="1.0" encoding="UTF-8" standalone="no"?>
<svg width="176px" height="421px" viewBox="0 0 176 421" version="1.1" xmlns="http://www.w3.org/2000/svg" xmlns:xlink="http://www.w3.org/1999/xlink" xmlns:sketch="http://www.bohemiancoding.com/sketch/ns">
    <!-- Generator: Sketch 3.3.3 (12081) - http://www.bohemiancoding.com/sketch -->
    <title>rocket</title>
    <desc>Created with Sketch.</desc>
    <defs></defs>
    <g id="Page-1" stroke="none" stroke-width="1" fill="none" fill-rule="evenodd" sketch:type="MSPage">
        <g id="iPhone-6" sketch:type="MSArtboardGroup" transform="translate(-100.000000, -1378.000000)" stroke="#F1EEE9">
            <g id="section" sketch:type="MSLayerGroup" transform="translate(0.000000, 1270.000000)">
                <g id="rocket" transform="translate(101.000000, 110.000000)" sketch:type="MSShapeGroup">
                    <path d="M58,312 L72.5,386.114973 L81.5445545,356.213904 L88.7227723,408 L98.7722772,341.886609 L106.811881,373.786096 L116,312 L58,312 Z" id="Exhaust" stroke-width="3" fill="#343434"></path>
                    <path d="M44,274 L51.3050193,322 L122.694981,322 L130,274 L44,274 Z" id="Nozzle" stroke-width="3" fill="#343434"></path>
                    <polygon id="Left-Fin" stroke-width="2.88" fill="#343434" transform="translate(23.000000, 220.500000) rotate(180.000000) translate(-23.000000, -220.500000) " points="1 181 45 159 45 204 1 282 "></polygon>
                    <polygon id="Left-Fin-Copy" stroke-width="2.88" fill="#343434" transform="translate(151.000000, 220.500000) scale(-1, 1) rotate(180.000000) translate(-151.000000, -220.500000) " points="129 181 173 159 173 204 129 282 "></polygon>
                    <path d="M129.41573,278 C133.697875,247.00404 136.963687,212.67071 138.556516,177.027083 C144.285017,48.8371363 92.728502,2.80782091e-15 87,0 C81.271498,-2.8078209e-15 29.7149827,48.8371363 35.4434844,177.027083 C37.0363128,212.670713 40.3021257,247.004042 44.5842706,278 L129.415731,277.999995 Z" id="Chassis" stroke-width="3" fill="#343434"></path>
                    <circle id="Outer-Ring" stroke-width="3" cx="87" cy="140" r="41"></circle>
                    <path d="M80.472043,167.680679 C80.3654998,167.672536 80.0376744,167.62368 79.7480953,167.572109 C79.4585162,167.520539 78.6198296,167.379399 77.8822225,167.257258 C75.3251844,166.836552 75.1967861,166.812124 74.1532087,166.535272 C71.3557653,165.791572 70.0116812,165.343723 68.5391989,164.665164 C67.7633454,164.306885 67.4163969,164.163031 67.2278973,164.116889 C66.9301226,164.046319 65.6324804,163.351475 64.6599317,162.738058 C62.9361166,161.655078 61.5510543,160.550385 60.4446436,159.377835 C59.2972547,158.161858 58.50501,157.135878 57.7810623,155.919901 C57.5078745,155.461195 56.8986656,154.337502 56.7156298,153.957509 C55.5409221,151.495698 54.9972784,149.06103 55.0000102,146.262654 C55.0000102,145.364242 55.0765028,144.194407 55.139336,144.118409 C55.1529954,144.102123 55.1939736,143.890413 55.2349518,143.643418 C55.3332994,143.038143 55.4726252,142.367728 55.6201466,141.803167 C55.6857117,141.545314 55.7403492,141.287462 55.7403492,141.233177 C55.7403492,140.956326 55.9971458,140.190911 56.150131,140.006343 C56.283993,139.846204 56.3468262,139.718635 56.4342463,139.430926 C56.5107389,139.189359 56.5462533,139.129646 56.8194412,138.841937 C57.1499984,138.494515 57.7619392,138.057523 58.2400178,137.834956 C58.9175237,137.514676 59.7534784,137.335537 60.7260271,137.300252 C61.0156061,137.289395 61.2286927,137.294823 61.3516272,137.316537 C62.0892343,137.444106 64.4331858,137.452249 65.5887703,137.332822 C66.6104928,137.226967 67.4901576,136.996257 68.1594678,136.659692 C68.5255395,136.475124 68.8424373,136.195558 69.1374802,135.788423 C69.6018995,135.153292 69.8231816,134.719015 70.3149197,133.465038 C70.623622,132.683339 70.959643,132.050922 71.3257147,131.570503 C71.6508082,131.141653 72.0114161,130.834945 72.5140817,130.56895 C72.64248,130.501094 72.7900014,130.416953 72.8419071,130.384382 C72.9812329,130.294812 73.606833,130.099387 74.0876436,129.993532 C74.4701065,129.909391 75.2514237,129.803536 75.6147635,129.78725 C75.7950675,129.779108 76.4233995,129.760108 77.0080214,129.746537 C77.5953752,129.732966 78.2592217,129.703109 78.4832357,129.678681 C78.7099816,129.656967 79.0951764,129.627111 79.3437773,129.610825 C80.4474561,129.542969 81.2096502,129.407258 81.9390617,129.143977 C82.1985901,129.051693 82.5264155,128.894267 82.5537343,128.850839 C82.5646618,128.834554 82.6466181,128.785698 82.739502,128.739556 C83.0099579,128.603844 83.2858776,128.381277 83.7666882,127.917143 C84.9113452,126.798878 85.7554956,125.623615 86.6925298,123.843077 C86.8045368,123.634081 86.9192757,123.433227 86.9493264,123.395228 C86.9821089,123.357229 87.0859203,123.148233 87.181536,122.933808 C87.2771518,122.716669 87.3727675,122.521245 87.3918907,122.499531 C87.4492601,122.431675 88.0639327,121.047415 88.3371205,120.368857 C88.4983013,119.964436 88.8944237,119.049739 89.0419451,118.740316 C89.112974,118.591033 89.2113216,118.360323 89.2632273,118.224611 C89.3124011,118.091614 89.3752343,117.964045 89.402553,117.945045 C89.4298718,117.923331 89.5418788,117.736049 89.6484221,117.524339 C90.1319645,116.560785 90.8040066,115.464235 91.4815124,114.533252 C91.7547002,114.158688 91.8339247,114.071832 92.006033,113.987691 C92.0797937,113.949692 92.1754095,113.900836 92.2163876,113.879122 C92.4731842,113.906264 92.5742637,113.941549 92.634365,113.963263 C92.8228646,114.022976 93.2463057,114.278114 93.3938272,114.421969 C93.5522761,114.573966 93.7079932,114.78839 93.8555146,115.062528 C93.9074203,115.16024 93.9784491,115.282381 94.0112317,115.333951 C94.0412823,115.385522 94.0686011,115.46152 94.0686011,115.502234 C94.0686011,115.540233 94.0986518,115.610803 94.1368981,115.654231 C94.1969994,115.724801 94.205195,115.760086 94.205195,115.947368 C94.205195,116.414217 94.0795286,116.848494 93.6096456,118.021044 C93.4266097,118.479749 93.3774359,118.69146 93.3883634,118.976454 C93.3992909,119.180022 93.4074866,119.218021 93.4785154,119.307591 C93.576863,119.437874 93.667015,119.492159 93.9292753,119.5763 C94.3663758,119.720154 94.5685348,119.739154 95.5574747,119.71744 C96.3387919,119.701155 96.5054365,119.690298 96.8004793,119.636013 C97.3987607,119.522015 98.3030124,119.329305 98.7674317,119.215307 C100.067806,118.897741 100.972057,118.786458 101.704201,118.859742 C104.589064,119.144737 106.372981,119.969864 107.621449,121.590262 C107.952006,122.019111 108.446476,122.781811 108.905432,123.558082 C109.301554,124.233927 109.837002,124.945056 110.282299,125.392905 C110.530899,125.6399 110.61832,125.71047 110.790428,125.794611 C111.23026,126.003607 111.771172,126.08232 112.798358,126.08232 C113.101597,126.08232 113.475864,126.095891 113.631581,126.109463 C114.631449,126.207175 115.33081,126.503027 115.915431,127.07573 C116.295163,127.450294 116.48093,127.705433 116.819683,128.321564 C117.125654,128.88341 117.273175,129.257975 117.453479,129.950104 C117.499921,130.129244 117.609196,130.484809 117.699348,130.737233 C119.163635,134.925296 119.518779,138.896222 118.803027,143.095142 C118.658237,143.955555 118.434223,144.94625 118.215673,145.706236 C117.917898,146.737645 117.524508,147.869481 117.278639,148.393328 C117.199414,148.564325 117.054625,148.88189 116.959009,149.099029 C116.388046,150.401862 115.401838,152.171543 114.494855,153.523231 C113.740856,154.641496 112.421359,156.346035 111.623651,157.228162 C109.957205,159.071127 108.514773,160.414673 106.594263,161.91293 C104.206601,163.77761 102.72046,164.616308 101.144166,164.990872 C100.433877,165.156441 99.8629149,165.216154 98.5898596,165.248725 C97.6173109,165.273153 97.3851013,165.294867 96.4316758,165.449578 C96.1175098,165.501149 95.7842206,165.550005 95.6913368,165.558147 C95.2542363,165.604289 94.8581139,165.750858 93.0222917,166.548843 C91.3421866,167.278972 90.9460643,167.433684 90.3204641,167.593823 C89.8560448,167.71325 89.4845094,167.753963 89.2113216,167.718678 C88.8015398,167.664393 87.7798174,167.387542 87.4274051,167.23283 C86.9192757,167.010263 86.6515516,166.95055 86.1598136,166.95055 C85.8183288,166.947836 85.7145174,166.958692 85.5342134,167.010263 C85.2856125,167.078119 84.556201,167.344114 84.0016297,167.572109 C83.501696,167.772963 83.1356243,167.895103 82.873364,167.946674 C82.4799736,168.022672 82.3706984,168.019958 81.8844241,167.922246 C81.2560921,167.791962 80.7042527,167.699679 80.472043,167.680679 Z" id="Brain" stroke-width="3" transform="translate(87.000000, 141.000000) scale(-1, 1) rotate(-180.000000) translate(-87.000000, -141.000000) "></path>
                </g>
            </g>
        </g>
    </g>
</svg>