<?xml version="1.0" encoding="UTF-8" standalone="no"?>
<svg width="293px" height="636px" viewBox="0 0 293 636" version="1.1" xmlns="http://www.w3.org/2000/svg" xmlns:xlink="http://www.w3.org/1999/xlink" xmlns:sketch="http://www.bohemiancoding.com/sketch/ns">
    <!-- Generator: Sketch 3.3.3 (12081) - http://www.bohemiancoding.com/sketch -->
    <title>safari</title>
    <desc>Created with Sketch.</desc>
    <defs></defs>
    <g id="Page-1" stroke="none" stroke-width="1" fill="none" fill-rule="evenodd" sketch:type="MSPage">
        <g id="iPhone-6" sketch:type="MSArtboardGroup" transform="translate(-82.000000, -2606.000000)">
            <g id="section" sketch:type="MSLayerGroup" transform="translate(-1639.000000, 1845.000000)">
                <g id="safari" transform="translate(1721.000000, 761.000000)" sketch:type="MSShapeGroup">
                    <rect id="Window-Frame" fill="#FFFFFF" x="0" y="53" width="991" height="610"></rect>
                    <rect id="Browser-Top-Window" fill="#F1F1F1" x="0" y="0" width="991" height="60" rx="6"></rect>
                    <g id="Tab-Bar" transform="translate(0.000000, 40.000000)" fill="#E9E9E9">
                        <rect id="R" x="0" y="0" width="966.225" height="23"></rect>
                    </g>
                    <g id="Search-Bar" transform="translate(273.516000, 9.000000)" fill="#FFFFFF">
                        <rect id="R" x="0" y="0" width="444.959" height="22" rx="3"></rect>
                    </g>
                    <g id="Forwards-Button" transform="translate(105.046000, 9.000000)">
                        <rect id="R" fill="#FFFFFF" x="0" y="0" width="25.766" height="22" rx="3"></rect>
                        <path d="M16.8148687,16.5 L10.838,11 L16.8148687,5.5 L16.8148687,5.5 L17.838,5.5 L17.838,6.83833089 L13.3155,11 L17.838,15.1616691 L17.838,16.5 L16.8148687,16.5 Z" id="Button" fill="#DDDDDD" transform="translate(14.369500, 11.000000) scale(-1, 1) translate(-14.369500, -11.000000) "></path>
                    </g>
                    <g id="Backwards-Button" transform="translate(78.289000, 9.000000)">
                        <rect id="R" fill="#FFFFFF" x="0" y="0" width="25.766" height="22" rx="3"></rect>
                        <path d="M14.8328687,16.5 L8.856,11 L14.8328687,5.5 L14.8328687,5.5 L15.856,5.5 L15.856,6.83833089 L11.3335,11 L15.856,15.1616691 L15.856,16.5 L14.8328687,16.5 Z" id="Button" fill="#DDDDDD"></path>
                    </g>
                    <path d="M19.82,26 C23.1038851,26 25.766,23.3137085 25.766,20 C25.766,16.6862915 23.1038851,14 19.82,14 C16.5361149,14 13.874,16.6862915 13.874,20 C13.874,23.3137085 16.5361149,26 19.82,26 Z M39.64,26 C42.9238851,26 45.586,23.3137085 45.586,20 C45.586,16.6862915 42.9238851,14 39.64,14 C36.3561149,14 33.694,16.6862915 33.694,20 C33.694,23.3137085 36.3561149,26 39.64,26 Z M59.46,26 C62.7438851,26 65.406,23.3137085 65.406,20 C65.406,16.6862915 62.7438851,14 59.46,14 C56.1761149,14 53.514,16.6862915 53.514,20 C53.514,23.3137085 56.1761149,26 59.46,26 Z" id="Window-Buttons" fill="#D9D9D9"></path>
                </g>
            </g>
        </g>
    </g>
</svg>