<?xml version="1.0" encoding="UTF-8" standalone="no"?>
<svg width="300px" height="568px" viewBox="0 0 300 568" version="1.1" xmlns="http://www.w3.org/2000/svg" xmlns:xlink="http://www.w3.org/1999/xlink" xmlns:sketch="http://www.bohemiancoding.com/sketch/ns">
    <!-- Generator: Sketch 3.3.3 (12081) - http://www.bohemiancoding.com/sketch -->
    <title>bag</title>
    <desc>Created with Sketch.</desc>
    <defs>
        <linearGradient x1="50%" y1="36.9923472%" x2="50%" y2="36.9923475%" id="linearGradient-1">
            <stop stop-color="#69514D" offset="0%"></stop>
            <stop stop-color="#5C4643" offset="100%"></stop>
        </linearGradient>
        <radialGradient cx="50%" cy="55.2777778%" fx="50%" fy="55.2777778%" r="41.1214193%" id="radialGradient-2">
            <stop stop-color="#FFFFFF" offset="0%"></stop>
            <stop stop-color="#FFFFFF" stop-opacity="0" offset="100%"></stop>
        </radialGradient>
    </defs>
    <g id="Page-1" stroke="none" stroke-width="1" fill="none" fill-rule="evenodd" sketch:type="MSPage">
        <g id="iPhone-6" sketch:type="MSArtboardGroup" transform="translate(-38.000000, -593.000000)">
            <g id="section" sketch:type="MSLayerGroup" transform="translate(0.000000, 483.000000)">
                <g id="bag" transform="translate(38.000000, 110.000000)" sketch:type="MSShapeGroup">
                    <path d="M81.9999999,568 C91.195509,568.000002 95.3684248,557.634093 88.8002045,550.643432 C82.2319842,543.652772 84.6272886,537 82.0000003,537 C79.3727119,537 81.768017,543.652772 75.199796,550.643432 C68.631575,557.634093 72.8044908,567.999998 81.9999999,568 Z" id="drop-bottom" fill="url(#linearGradient-1)"></path>
                    <rect id="bag-background-overlay" fill="url(#radialGradient-2)" x="15" y="76" width="270" height="360" rx="62"></rect>
                    <path d="M5,317 C5,317 83.5,314 149.5,288 C215.5,261.999999 294,297 294,297 L294,375.992467 C294,409.133712 267.13582,436 234.009368,436 L64.9906325,436 C31.858721,436 5,409.145699 5,375.998846 L5,317 Z" id="coffee-bottom" fill="#69514D"></path>
                    <path d="M5,327 C5,327 87.5,325 160,305 C232.5,285 294,315 294,315 L294,376.009577 C294,409.141373 267.13582,436 234.009368,436 L64.9906325,436 C31.858721,436 5,409.143589 5,375.999792 L5,327 Z" id="coffee-top" opacity="0.5" fill-opacity="0.25" fill="#000000"></path>
                    <path d="M94,451 L109,451 L109,451 L109,495.006935 C109,498.312319 111.683741,501 114.994304,501 L127.005696,501 C130.316754,501 133,498.316813 133,495.006935 L133,451 L227.999435,451 C267.770166,451 300,418.764177 300,378.999274 L300,133.000726 C300,99.9294919 277.714005,72.0765294 247.344224,63.6277563 C157.663444,28.3947717 226.784143,-2.48841894e-16 152.819309,-2.48841894e-16 C151.859684,-2.48841894e-16 150.920026,0.011025092 150.000001,0.032832559 C149.079958,0.0110249111 148.140308,-2.48841894e-16 147.180691,-2.48841894e-16 C73.2156292,-2.48841894e-16 142.336982,28.3949468 52.6549463,63.6280823 L52.6549463,63.6280823 C22.2825098,72.0784246 0,99.9369122 0,133.000726 L0,378.999274 C0,418.104453 31.1601674,449.913471 69.9999928,450.972751 L70,515.006935 C70,518.312319 72.6837413,521 75.9943041,521 L88.0056959,521 C91.3167544,521 94,518.316813 94,515.006935 L94,451 Z M150,45 C157.731986,45 164,38.7319865 164,31 C164,23.2680135 157.731986,17 150,17 C142.268014,17 136,23.2680135 136,31 C136,38.7319865 142.268014,45 150,45 Z M15,138.001426 C15,103.758984 42.7517219,76 77.0069752,76 L222.993025,76 C257.238532,76 285,103.762501 285,138.001426 L285,373.998574 C285,408.241016 257.248278,436 222.993025,436 L77.0069752,436 C42.7614684,436 15,408.237499 15,373.998574 L15,138.001426 Z" fill="#50E3C2"></path>
                    <circle id="ring-overlay" stroke="#000000" stroke-width="6" opacity="0.0500000007" cx="150" cy="31" r="17"></circle>
                    <g id="label" transform="translate(53.000000, 250.000000)">
                        <path d="M2,40 L0.299420208,5.98840415 C0.134054993,2.68109986 2.68062794,0.0687340498 5.99762823,0.153785339 L39,1 L186.002219,1 C189.314702,1 192,3.68713704 192,6.99321336 L192,135.006787 C192,138.316747 189.3141,141 185.99987,141 L8.00013049,141 C4.68634992,141 2,138.311517 2,135.003147 L2,40 Z" id="label-color" fill="#F1EEE9"></path>
                        <path d="M2,40 L0.299420208,5.98840415 C0.134054993,2.68109986 2.68062794,0.0687340498 5.99762823,0.153785339 L39,1 L2,40 Z" id="label-color-overlay" fill-opacity="0.2" fill="#000000"></path>
                        <path d="M2,40 L0.299420208,5.98840415 C0.134054993,2.68109986 2.68062794,0.0687340498 5.99762823,0.153785339 L39,1 L186.002219,1 C189.314702,1 192,3.68713704 192,6.99321336 L192,135.006787 C192,138.316747 189.3141,141 185.99987,141 L8.00013049,141 C4.68634992,141 2,138.311517 2,135.003147 L2,40 Z" id="label-overlay" fill-opacity="0.150000006" fill="#000000"></path>
                        <path d="M174,85.9931736 C174,85.444659 174.44266,85 174.998957,85 L176.001043,85 C176.552752,85 177,85.4464757 177,85.9931736 L177,125.006826 C177,125.555341 176.55734,126 176.001043,126 L174.998957,126 C174.447248,126 174,125.553524 174,125.006826 L174,85.9931736 Z M170,85.9931736 C170,85.444659 170.443865,85 171,85 C171.552285,85 172,85.4464757 172,85.9931736 L172,125.006826 C172,125.555341 171.556135,126 171,126 C170.447715,126 170,125.553524 170,125.006826 L170,85.9931736 Z M166,85.9931736 C166,85.444659 166.443865,85 167,85 C167.552285,85 168,85.4464757 168,85.9931736 L168,125.006826 C168,125.555341 167.556135,126 167,126 C166.447715,126 166,125.553524 166,125.006826 L166,85.9931736 Z M160,85.9931736 C160,85.444659 160.443353,85 161.009369,85 L162.990631,85 C163.54809,85 164,85.4464757 164,85.9931736 L164,125.006826 C164,125.555341 163.556647,126 162.990631,126 L161.009369,126 C160.45191,126 160,125.553524 160,125.006826 L160,85.9931736 Z M155,85.9931736 C155,85.444659 155.44266,85 155.998957,85 L157.001043,85 C157.552752,85 158,85.4464757 158,85.9931736 L158,125.006826 C158,125.555341 157.55734,126 157.001043,126 L155.998957,126 C155.447248,126 155,125.553524 155,125.006826 L155,85.9931736 Z M148,85.9931736 C148,85.444659 148.443717,85 148.999807,85 L152.000193,85 C152.552371,85 153,85.4464757 153,85.9931736 L153,125.006826 C153,125.555341 152.556283,126 152.000193,126 L148.999807,126 C148.447629,126 148,125.553524 148,125.006826 L148,85.9931736 Z M144,85.9931736 C144,85.444659 144.443865,85 145,85 C145.552285,85 146,85.4464757 146,85.9931736 L146,125.006826 C146,125.555341 145.556135,126 145,126 C144.447715,126 144,125.553524 144,125.006826 L144,85.9931736 Z M140,85.9931736 C140,85.444659 140.443865,85 141,85 C141.552285,85 142,85.4464757 142,85.9931736 L142,125.006826 C142,125.555341 141.556135,126 141,126 C140.447715,126 140,125.553524 140,125.006826 L140,85.9931736 Z M136,85.9931736 C136,85.444659 136.443865,85 137,85 C137.552285,85 138,85.4464757 138,85.9931736 L138,125.006826 C138,125.555341 137.556135,126 137,126 C136.447715,126 136,125.553524 136,125.006826 L136,85.9931736 Z M119,85.9931736 C119,85.444659 119.44266,85 119.998957,85 L121.001043,85 C121.552752,85 122,85.4464757 122,85.9931736 L122,125.006826 C122,125.555341 121.55734,126 121.001043,126 L119.998957,126 C119.447248,126 119,125.553524 119,125.006826 L119,85.9931736 Z M113,85.9931736 C113,85.444659 113.44266,85 113.998957,85 L115.001043,85 C115.552752,85 116,85.4464757 116,85.9931736 L116,125.006826 C116,125.555341 115.55734,126 115.001043,126 L113.998957,126 C113.447248,126 113,125.553524 113,125.006826 L113,85.9931736 Z M108,85.9931736 C108,85.444659 108.44266,85 108.998957,85 L110.001043,85 C110.552752,85 111,85.4464757 111,85.9931736 L111,125.006826 C111,125.555341 110.55734,126 110.001043,126 L108.998957,126 C108.447248,126 108,125.553524 108,125.006826 L108,85.9931736 Z M130,85.9931736 C130,85.444659 130.443353,85 131.009369,85 L132.990631,85 C133.54809,85 134,85.4464757 134,85.9931736 L134,125.006826 C134,125.555341 133.556647,126 132.990631,126 L131.009369,126 C130.45191,126 130,125.553524 130,125.006826 L130,85.9931736 Z M124,85.9931736 C124,85.444659 124.443353,85 125.009369,85 L126.990631,85 C127.54809,85 128,85.4464757 128,85.9931736 L128,125.006826 C128,125.555341 127.556647,126 126.990631,126 L125.009369,126 C124.45191,126 124,125.553524 124,125.006826 L124,85.9931736 Z M104,85.9931736 C104,85.444659 104.443865,85 105,85 C105.552285,85 106,85.4464757 106,85.9931736 L106,125.006826 C106,125.555341 105.556135,126 105,126 C104.447715,126 104,125.553524 104,125.006826 L104,85.9931736 Z M99,85.9931736 C99,85.444659 99.4426603,85 99.9989566,85 L101.001043,85 C101.552752,85 102,85.4464757 102,85.9931736 L102,125.006826 C102,125.555341 101.55734,126 101.001043,126 L99.9989566,126 C99.4472481,126 99,125.553524 99,125.006826 L99,85.9931736 Z" id="barcode" fill-opacity="0.100000001" fill="#000000"></path>
                    </g>
                </g>
            </g>
        </g>
    </g>
</svg>